<?xml version="1.0" standalone="no"?>
<svg xmlns="http://www.w3.org/2000/svg" viewBox="0 0 104.14453125 22.59375" width="104.14453125" height="22.59375"><path fill="#ff5850" fill-rule="nonzero" d="M5.11 12.38L5.11 1.82Q5.84 1.88 6.16 1.88L6.16 1.88L7.08 1.88Q7.65 1.88 8.21 1.78L8.21 1.78L8.21 12.28Q8.21 14.86 6.84 16.34L6.84 16.34Q5.54 17.75 3.33 17.75L3.33 17.75Q1.80 17.75 0.77 17.14L0.77 17.14Q0.39 16.92 0 16.61L0 16.61L0 13.22L0.08 13.20Q0.57 13.97 1.24 14.46Q1.90 14.95 2.88 14.95L2.88 14.95Q5.11 14.95 5.11 12.38L5.11 12.38ZM19.00 17.46L19.00 16.39Q17.50 17.64 15.73 17.64L15.73 17.64Q13.83 17.64 12.75 16.36L12.75 16.36Q11.72 15.12 11.72 12.95L11.72 12.95L11.72 8.30Q11.72 5.95 11.62 5.61Q11.52 5.26 11.47 5.17L11.47 5.17Q12.01 5.21 12.60 5.21L12.60 5.21L13.57 5.21Q13.96 5.21 14.59 5.18L14.59 5.18L14.59 11.96Q14.59 14.38 15.90 14.77L15.90 14.77Q16.30 14.88 16.77 14.88L16.77 14.88Q18.15 14.88 19.00 13.88L19.00 13.88L19.00 5.21L21.90 5.21L21.90 15.96Q21.90 16.99 22.00 17.46L22.00 17.46L19.00 17.46ZM29.77 17.64L29.77 17.64Q26.46 17.64 24.79 16.43L24.79 16.43Q24.81 16.08 24.86 15.63L24.86 15.63L24.96 14.79Q25.05 13.96 25.08 13.75Q25.10 13.55 25.11 13.53Q25.13 13.51 25.30 13.72Q25.48 13.92 25.97 14.21Q26.46 14.51 27.11 14.73L27.11 14.73Q28.50 15.21 30.01 15.21L30.01 15.21Q32.04 15.21 32.04 13.86L32.04 13.86Q32.04 13.43 31.65 13.22L31.65 13.22Q30.96 12.87 29.62 12.69Q28.28 12.50 27.42 12.15Q26.57 11.80 26.03 11.31L26.03 11.31Q25.03 10.38 25.03 8.88L25.03 8.88Q25.03 7.05 26.44 6.01L26.44 6.01Q27.83 4.98 30.29 4.98L30.29 4.98Q32.73 4.98 34.45 6.36L34.45 6.36Q34.37 6.67 34.28 6.95L34.28 6.95Q34.01 7.72 33.88 8.06L33.88 8.06L33.61 8.75Q33.59 8.85 33.57 8.85L33.57 8.85Q33.55 8.85 33.39 8.60L33.39 8.60Q32.65 7.75 31.09 7.48L31.09 7.48Q30.61 7.38 30.11 7.38L30.11 7.38Q27.97 7.38 27.97 8.67L27.97 8.67Q27.97 9.12 28.42 9.35L28.42 9.35Q29.25 9.80 30.70 10.01Q32.14 10.22 32.89 10.58Q33.64 10.93 34.10 11.44L34.10 11.44Q34.95 12.35 34.95 13.86L34.95 13.86Q34.95 15.52 33.62 16.55L33.62 16.55Q32.24 17.64 29.77 17.64ZM43.10 14.88L43.10 14.88Q44.61 14.88 45.18 14.10L45.18 14.10L45.27 14.10L45.30 16.82Q44.73 17.39 43.17 17.58L43.17 17.58Q42.75 17.64 42.12 17.64Q41.50 17.64 40.76 17.40Q40.03 17.17 39.52 16.64L39.52 16.64Q38.45 15.55 38.45 13.23L38.45 13.23L38.45 7.91L36.68 7.91Q36.67 7.57 36.67 7.22L36.67 7.22L36.67 5.41Q36.67 5.21 36.68 5.21L36.68 5.21L38.45 5.21L38.45 1.88L41.32 1.88L41.32 5.21L44.54 5.21L44.54 7.91L41.32 7.91L41.32 12.69Q41.32 14.53 42.34 14.79L42.34 14.79Q42.67 14.88 43.10 14.88ZM49.58 22.59L46.56 21.54L47.33 20.92Q49.08 19.50 50.23 16.73L50.23 16.73L50.77 15.43L46.28 5.21L49.56 5.21L52.37 12.29L54.98 5.21L58.36 5.21Q57.75 6.06 56.87 8.36L56.87 8.36L55.11 12.70Q51.59 21 49.58 22.59L49.58 22.59ZM62.67 17.46L59.25 17.46Q59.36 16.75 59.36 16.20Q59.36 15.64 59.35 15.44Q59.34 15.23 59.33 15.04Q59.32 14.84 59.31 14.66L59.31 14.66L59.27 14.37L62.67 14.37Q62.64 14.81 62.64 15.09L62.64 15.09L62.61 15.59Q62.61 15.81 62.61 16.42Q62.61 17.04 62.67 17.46L62.67 17.46ZM74.07 16.80L74.07 16.80Q72.59 17.64 71.10 17.64Q69.61 17.64 68.50 17.17Q67.38 16.70 66.60 15.88L66.60 15.88Q64.98 14.19 64.98 11.50L64.98 11.50Q64.98 8.71 66.86 6.86L66.86 6.86Q68.74 4.98 71.68 4.98L71.68 4.98Q72.59 4.98 73.45 5.21L73.45 5.21L73.45 0L76.32 0L76.32 12.53Q76.32 14.09 76.47 14.57Q76.62 15.05 76.80 15.27Q76.98 15.49 77.26 15.69L77.26 15.69L75.06 17.64Q74.45 17.31 74.07 16.80ZM71.65 14.94L71.65 14.94Q72.63 14.94 73.45 14.57L73.45 14.57L73.45 8.07Q72.63 7.73 71.67 7.73Q70.71 7.73 70.03 7.99Q69.34 8.25 68.85 8.71L68.85 8.71Q67.82 9.67 67.82 11.20L67.82 11.20Q67.82 12.88 68.75 13.88L68.75 13.88Q69.76 14.94 71.65 14.94ZM79.11 11.44L79.11 11.44Q79.11 10.07 79.58 8.89Q80.05 7.72 80.91 6.84L80.91 6.84Q82.73 4.98 85.69 4.98L85.69 4.98Q88.18 4.98 89.70 6.63L89.70 6.63Q91.18 8.23 91.18 10.64L91.18 10.64Q91.18 11.57 91.04 11.91L91.04 11.91Q89.87 12.23 86.27 12.23L86.27 12.23L82.15 12.23Q82.45 13.49 83.57 14.19Q84.68 14.88 86.46 14.88L86.46 14.88Q88.32 14.88 89.66 14.21L89.66 14.21Q90.01 14.04 90.19 13.89L90.19 13.89Q90.16 14.38 90.13 14.89L90.13 14.89L90 16.72Q89.11 17.33 87.12 17.57L87.12 17.57Q86.53 17.64 85.99 17.64L85.99 17.64Q83.02 17.64 81.07 15.90L81.07 15.90Q79.11 14.16 79.11 11.44ZM88.07 9.96L88.07 9.96Q87.59 7.44 85.32 7.44L85.32 7.44Q83.54 7.44 82.62 8.98L82.62 8.98Q82.34 9.45 82.18 10.01L82.18 10.01Q82.46 10.02 82.88 10.03L82.88 10.03L83.74 10.03Q84.18 10.04 84.57 10.04L84.57 10.04L85.24 10.04Q85.84 10.04 86.41 10.03L86.41 10.03L87.38 10.00Q87.76 9.98 88.07 9.96ZM96.89 17.46L91.96 5.21L95.27 5.21L98.13 13.28L100.90 5.21L104.14 5.21L99.30 17.46L96.89 17.46Z"></path></svg>